<?xml version="1.0" encoding="UTF-8" standalone="no"?>
<svg
   xmlns:dc="http://purl.org/dc/elements/1.1/"
   xmlns:cc="http://creativecommons.org/ns#"
   xmlns:rdf="http://www.w3.org/1999/02/22-rdf-syntax-ns#"
   xmlns:svg="http://www.w3.org/2000/svg"
   xmlns="http://www.w3.org/2000/svg"
   xmlns:sodipodi="http://sodipodi.sourceforge.net/DTD/sodipodi-0.dtd"
   xmlns:inkscape="http://www.inkscape.org/namespaces/inkscape"
   sodipodi:docname="logo.svg"
   inkscape:version="0.92.5 (2060ec1f9f, 2020-04-08)"
   id="svg8"
   version="1.1"
   viewBox="0 0 101.19202 33.991676"
   height="33.991676mm"
   width="101.19203mm"
   inkscape:export-filename="/home/tpl/Desktop/game-ten-points/board.png"
   inkscape:export-xdpi="96"
   inkscape:export-ydpi="96">
  <defs
     id="defs2">
    <inkscape:path-effect
       effect="spiro"
       id="path-effect880"
       is_visible="true" />
  </defs>
  <sodipodi:namedview
     inkscape:window-maximized="1"
     inkscape:window-y="27"
     inkscape:window-x="68"
     inkscape:window-height="836"
     inkscape:window-width="1532"
     showgrid="true"
     inkscape:document-rotation="0"
     inkscape:current-layer="layer1"
     inkscape:document-units="mm"
     inkscape:cy="23.855882"
     inkscape:cx="168.74616"
     inkscape:zoom="1.4142136"
     inkscape:pageshadow="2"
     inkscape:pageopacity="1"
     borderopacity="1.0"
     bordercolor="#666666"
     pagecolor="#ffffff"
     id="base"
     inkscape:pagecheckerboard="false"
     fit-margin-top="0"
     fit-margin-left="0"
     fit-margin-right="0"
     fit-margin-bottom="0">
    <inkscape:grid
       type="xygrid"
       id="grid812"
       originx="-132.16665"
       originy="-172.38333" />
  </sodipodi:namedview>
  <metadata
     id="metadata5">
    <rdf:RDF>
      <cc:Work
         rdf:about="">
        <dc:format>image/svg+xml</dc:format>
        <dc:type
           rdf:resource="http://purl.org/dc/dcmitype/StillImage" />
        <dc:title></dc:title>
      </cc:Work>
    </rdf:RDF>
  </metadata>
  <g
     id="layer1"
     inkscape:groupmode="layer"
     inkscape:label="Layer 1"
     transform="translate(-132.16669,-90.624982)">
    <g
       id="g1192">
      <g
         transform="matrix(1,0,0,0.96154615,-7.2964581,6.1937377)"
         id="g1152">
        <g
           aria-label="GUESS
"
           transform="matrix(0.26458333,0,0,0.26458333,126.07943,84.955355)"
           style="font-style:normal;font-weight:normal;font-size:40px;line-height:1.25;font-family:sans-serif;letter-spacing:0px;word-spacing:0px;fill:#393939;fill-opacity:1;stroke:none"
           id="flowRoot868">
          <path
             d="m 223.23982,39.423747 h 21.13067 v 27.626666 q -4.18134,1.418666 -8.736,2.239999 -4.48,0.821334 -10.22933,0.821334 -11.94667,0 -18.368,-7.018667 -6.42134,-7.018666 -6.42134,-20.458666 0,-8.362666 3.21067,-14.485332 3.28533,-6.122667 9.48267,-9.482667 6.19733,-3.36 15.15733,-3.36 4.256,0 8.36266,0.896 4.10667,0.896 7.46667,2.389333 l -3.73333,9.034667 q -2.464,-1.269333 -5.6,-2.090667 -3.136,-0.821333 -6.57067,-0.821333 -4.928,0 -8.58666,2.24 -3.584,2.24 -5.6,6.346666 -1.94134,4.032 -1.94134,9.557333 0,5.226667 1.41867,9.258667 1.41867,4.032 4.48,6.346666 3.06133,2.24 7.98933,2.24 2.38934,0 4.032,-0.224 1.71734,-0.224 3.136,-0.522667 V 48.831746 h -10.08 z"
             style="font-style:normal;font-variant:normal;font-weight:bold;font-stretch:normal;font-size:74.66666412px;font-family:'Noto Sans';-inkscape-font-specification:'Noto Sans Bold';fill:#393939;fill-opacity:1"
             id="path1241" />
          <path
             d="M 300.44508,16.053081 V 50.54908 q 0,5.525333 -2.464,10.005333 -2.38933,4.405333 -7.31733,7.018666 -4.85333,2.538667 -12.32,2.538667 -10.60267,0 -16.128,-5.376 -5.52533,-5.450667 -5.52533,-14.336 V 16.053081 h 11.27466 v 32.629332 q 0,6.570667 2.688,9.258666 2.688,2.688 7.98934,2.688 5.52533,0 7.98933,-2.912 2.53867,-2.911999 2.53867,-9.109333 V 16.053081 Z"
             style="font-style:normal;font-variant:normal;font-weight:bold;font-stretch:normal;font-size:74.66666412px;font-family:'Noto Sans';-inkscape-font-specification:'Noto Sans Bold';fill:#393939;fill-opacity:1"
             id="path1243" />
          <path
             d="m 344.19964,69.365079 h -30.688 V 16.053081 h 30.688 v 9.258666 h -19.41333 v 11.722667 h 18.06933 v 9.258666 h -18.06933 v 13.738666 h 19.41333 z"
             style="font-style:normal;font-variant:normal;font-weight:bold;font-stretch:normal;font-size:74.66666412px;font-family:'Noto Sans';-inkscape-font-specification:'Noto Sans Bold';fill:#393939;fill-opacity:1"
             id="path1245" />
          <path
             d="m 386.7596,54.58108 q 0,7.093333 -5.152,11.349333 -5.07733,4.181333 -14.48533,4.181333 -8.43734,0 -15.08267,-3.210667 V 56.37308 q 3.808,1.642666 7.84,3.061333 4.10667,1.344 8.13867,1.344 4.18133,0 5.89866,-1.568 1.792,-1.642667 1.792,-4.106667 0,-2.016 -1.41866,-3.434666 -1.344,-1.418667 -3.65867,-2.613334 -2.31467,-1.269333 -5.30133,-2.687999 -1.86667,-0.896 -4.032,-2.090667 -2.16534,-1.269333 -4.18134,-3.061333 -1.94133,-1.866667 -3.21066,-4.48 -1.26934,-2.613333 -1.26934,-6.272 0,-7.168 4.85334,-11.125333 4.85333,-4.032 13.216,-4.032 4.18133,0 7.91466,0.970667 3.808,0.970667 7.91467,2.762666 l -3.65867,8.810667 q -3.65866,-1.493333 -6.57066,-2.314667 -2.912,-0.821333 -5.97334,-0.821333 -3.21066,0 -4.928,1.493333 -1.71733,1.493334 -1.71733,3.882667 0,2.837333 2.53867,4.48 2.53866,1.642666 7.54133,4.031999 4.10667,1.941334 6.944,4.032 2.912,2.090667 4.48,4.928 1.568,2.837333 1.568,7.018667 z"
             style="font-style:normal;font-variant:normal;font-weight:bold;font-stretch:normal;font-size:74.66666412px;font-family:'Noto Sans';-inkscape-font-specification:'Noto Sans Bold';fill:#393939;fill-opacity:1"
             id="path1247" />
          <path
             d="m 427.90084,54.58108 q 0,7.093333 -5.152,11.349333 -5.07734,4.181333 -14.48534,4.181333 -8.43733,0 -15.08266,-3.210667 V 56.37308 q 3.808,1.642666 7.84,3.061333 4.10666,1.344 8.13866,1.344 4.18134,0 5.89867,-1.568 1.792,-1.642667 1.792,-4.106667 0,-2.016 -1.41867,-3.434666 -1.344,-1.418667 -3.65866,-2.613334 -2.31467,-1.269333 -5.30134,-2.687999 -1.86666,-0.896 -4.032,-2.090667 -2.16533,-1.269333 -4.18133,-3.061333 -1.94133,-1.866667 -3.21067,-4.48 -1.26933,-2.613333 -1.26933,-6.272 0,-7.168 4.85333,-11.125333 4.85334,-4.032 13.216,-4.032 4.18134,0 7.91467,0.970667 3.808,0.970667 7.91467,2.762666 l -3.65867,8.810667 q -3.65867,-1.493333 -6.57067,-2.314667 -2.912,-0.821333 -5.97333,-0.821333 -3.21067,0 -4.928,1.493333 -1.71733,1.493334 -1.71733,3.882667 0,2.837333 2.53866,4.48 2.53867,1.642666 7.54134,4.031999 4.10666,1.941334 6.944,4.032 2.912,2.090667 4.48,4.928 1.568,2.837333 1.568,7.018667 z"
             style="font-style:normal;font-variant:normal;font-weight:bold;font-stretch:normal;font-size:74.66666412px;font-family:'Noto Sans';-inkscape-font-specification:'Noto Sans Bold';fill:#393939;fill-opacity:1"
             id="path1249" />
        </g>
        <g
           aria-label="MY PLAY"
           transform="matrix(0.26458333,0,0,0.36942231,126.1387,104.60785)"
           style="font-style:normal;font-weight:normal;font-size:40px;line-height:1.25;font-family:sans-serif;letter-spacing:0px;word-spacing:0px;fill:#393939;fill-opacity:1;stroke:none"
           id="flowRoot890">
          <path
             d="m 216.97849,49.954413 -7.78667,-27.413334 h -0.21333 q 0.10667,1.066666 0.21333,2.88 0.10667,1.813333 0.21334,3.946666 0.10666,2.080001 0.10666,4.053334 v 16.533334 h -9.12 V 11.874411 h 13.70667 l 7.94667,27.040002 h 0.21333 l 7.78667,-27.040002 h 13.70667 v 38.080002 h -9.44001 V 33.261079 q 0,-1.813333 0.0533,-3.84 0.0533,-2.08 0.16,-3.893334 0.10666,-1.866666 0.16,-2.933333 h -0.21334 l -7.68,27.360001 z"
             style="font-style:normal;font-variant:normal;font-weight:900;font-stretch:normal;font-size:53.33333588px;font-family:'Noto Sans';-inkscape-font-specification:'Noto Sans Heavy';fill:#393939;fill-opacity:1"
             id="path1252" />
          <path
             d="m 265.56511,26.007745 6.56,-14.133334 h 11.14667 L 270.73844,35.074412 V 49.954413 H 260.39177 V 35.394412 L 247.85844,11.874411 h 11.2 z"
             style="font-style:normal;font-variant:normal;font-weight:900;font-stretch:normal;font-size:53.33333588px;font-family:'Noto Sans';-inkscape-font-specification:'Noto Sans Heavy';fill:#393939;fill-opacity:1"
             id="path1254" />
          <path
             d="m 314.41833,11.874411 q 7.25333,0 10.82667,3.146667 3.62666,3.146667 3.62666,8.960001 0,2.613333 -0.74666,5.013333 -0.74667,2.346667 -2.45334,4.266667 -1.65333,1.866667 -4.42666,2.986667 -2.77334,1.066667 -6.82667,1.066667 h -2.88 v 12.64 H 301.245 V 11.874411 Z m -0.21333,8.320001 h -2.66667 v 8.746667 h 2.02667 q 2.02666,0 3.52,-1.013334 1.49333,-1.066666 1.49333,-3.68 0,-1.813333 -1.06667,-2.933333 -1.06666,-1.12 -3.30666,-1.12 z"
             style="font-style:normal;font-variant:normal;font-weight:900;font-stretch:normal;font-size:53.33333588px;font-family:'Noto Sans';-inkscape-font-specification:'Noto Sans Heavy';fill:#393939;fill-opacity:1"
             id="path1256" />
          <path
             d="M 334.95167,49.954413 V 11.874411 H 345.245 v 29.760002 h 14.66667 v 8.32 z"
             style="font-style:normal;font-variant:normal;font-weight:900;font-stretch:normal;font-size:53.33333588px;font-family:'Noto Sans';-inkscape-font-specification:'Noto Sans Heavy';fill:#393939;fill-opacity:1"
             id="path1258" />
          <path
             d="m 389.3516,49.954413 -1.86667,-7.146667 H 375.1116 l -1.92,7.146667 H 361.88493 L 374.3116,11.714411 h 13.70667 l 12.58667,38.240002 z m -4,-15.573334 -1.65333,-6.24 q -0.26667,-1.013334 -0.74667,-2.88 -0.48,-1.92 -0.96,-3.946667 -0.48,-2.026667 -0.74667,-3.306667 -0.21333,1.28 -0.69333,3.2 -0.42667,1.92 -0.90667,3.786667 -0.42666,1.866667 -0.74666,3.146667 l -1.65334,6.24 z"
             style="font-style:normal;font-variant:normal;font-weight:900;font-stretch:normal;font-size:53.33333588px;font-family:'Noto Sans';-inkscape-font-specification:'Noto Sans Heavy';fill:#393939;fill-opacity:1"
             id="path1260" />
          <path
             d="m 415.11151,26.007745 6.56,-14.133334 h 11.14667 L 420.28485,35.074412 V 49.954413 H 409.93818 V 35.394412 L 397.40485,11.874411 h 11.2 z"
             style="font-style:normal;font-variant:normal;font-weight:900;font-stretch:normal;font-size:53.33333588px;font-family:'Noto Sans';-inkscape-font-specification:'Noto Sans Heavy';fill:#393939;fill-opacity:1"
             id="path1262" />
        </g>
      </g>
      <g
         id="g1140">
        <g
           id="g1112">
          <g
             transform="translate(0.43097398,0.0819366)"
             id="g1084">
            <path
               style="fill:#fffc00;fill-opacity:1;stroke:none;stroke-width:1.86622;stroke-linecap:round;stroke-linejoin:bevel;stroke-miterlimit:4;stroke-dasharray:none;stroke-opacity:1"
               d="m 150.38155,90.543045 h 16 v 16.000005 h -16 z"
               id="rect918" />
            <g
               aria-label="16"
               transform="matrix(0.26458333,0,0,0.26458333,146.55729,83.389277)"
               style="font-style:normal;font-weight:normal;font-size:40px;line-height:1.25;font-family:sans-serif;letter-spacing:0px;word-spacing:0px;fill:#393939;fill-opacity:1;stroke:none"
               id="flowRoot926">
              <path
                 d="M 39.397136,47.404296 V 66.818359 H 34.032552 V 54.097005 q -1.302083,0.989583 -2.526041,1.601562 -1.210938,0.611979 -3.046875,1.171875 v -4.348958 q 2.708333,-0.872396 4.205729,-2.096355 1.497396,-1.223958 2.34375,-3.020833 z"
                 style="font-style:normal;font-variant:normal;font-weight:bold;font-stretch:normal;font-size:26.66666794px;font-family:'Arial Black';-inkscape-font-specification:'Arial Black, Bold';fill:#393939;fill-opacity:1"
                 id="path1266" />
              <path
                 d="m 60.516929,52.026692 -5.273438,0.651042 q -0.208334,-1.106771 -0.703125,-1.5625 -0.481771,-0.45573 -1.197917,-0.45573 -1.289063,0 -2.005208,1.302084 -0.520834,0.9375 -0.76823,4.010417 0.950521,-0.963542 1.953125,-1.419271 1.002605,-0.46875 2.317709,-0.46875 2.552083,0 4.309896,1.822917 1.770833,1.822916 1.770833,4.622396 0,1.88802 -0.898437,3.450521 -0.885417,1.5625 -2.473959,2.369791 -1.575521,0.794271 -3.958333,0.794271 -2.864584,0 -4.596355,-0.976562 -1.73177,-0.976563 -2.773437,-3.11198 -1.028646,-2.148437 -1.028646,-5.677083 0,-5.169271 2.174479,-7.565105 2.174479,-2.408854 6.028646,-2.408854 2.278646,0 3.593751,0.533854 1.328125,0.520833 2.20052,1.536459 0.872396,1.015625 1.328126,2.552083 z m -9.765626,8.502605 q 0,1.549479 0.78125,2.434896 0.78125,0.872395 1.914063,0.872395 1.041666,0 1.744791,-0.79427 0.703125,-0.794271 0.703125,-2.369792 0,-1.614584 -0.729166,-2.460938 -0.729167,-0.846354 -1.809896,-0.846354 -1.106771,0 -1.861979,0.820312 -0.742188,0.820313 -0.742188,2.343751 z"
                 style="font-style:normal;font-variant:normal;font-weight:bold;font-stretch:normal;font-size:26.66666794px;font-family:'Arial Black';-inkscape-font-specification:'Arial Black, Bold';fill:#393939;fill-opacity:1"
                 id="path1268" />
            </g>
          </g>
          <g
             transform="translate(-0.06856826,0.08022762)"
             id="g1077">
            <path
               style="fill:#0045ff;fill-opacity:1;stroke:none;stroke-width:1.86622;stroke-linecap:round;stroke-linejoin:bevel;stroke-miterlimit:4;stroke-dasharray:none;stroke-opacity:1"
               d="m 150.88109,108.53643 h 16 v 16 h -16 z"
               id="rect930" />
            <g
               aria-label="C"
               transform="matrix(0.26458333,0,0,0.26458333,149.13594,101.38094)"
               style="font-style:normal;font-weight:normal;font-size:40px;line-height:1.25;font-family:sans-serif;letter-spacing:0px;word-spacing:0px;fill:#000000;fill-opacity:1;stroke:none"
               id="flowRoot938">
              <path
                 d="m 40.946615,59.01888 5.169271,1.5625 q -0.520833,2.174479 -1.640625,3.632813 -1.119791,1.458333 -2.786458,2.200521 -1.653646,0.742187 -4.21875,0.742187 -3.11198,0 -5.091146,-0.898437 -1.966146,-0.911459 -3.398438,-3.190105 -1.432292,-2.278646 -1.432292,-5.833333 0,-4.739584 2.513021,-7.278647 2.526042,-2.552083 7.135417,-2.552083 3.606771,0 5.664063,1.458333 2.070312,1.458334 3.072917,4.479167 l -5.208334,1.158854 q -0.273437,-0.872395 -0.572917,-1.276041 -0.494791,-0.677084 -1.210937,-1.041667 -0.716146,-0.364583 -1.601563,-0.364583 -2.005208,0 -3.072917,1.614583 -0.807291,1.197917 -0.807291,3.763021 0,3.177084 0.963541,4.361979 0.963542,1.171876 2.708334,1.171876 1.692708,0 2.552083,-0.950521 0.872396,-0.950521 1.263021,-2.760417 z"
                 style="font-style:normal;font-variant:normal;font-weight:bold;font-stretch:normal;font-size:26.66666794px;font-family:'Arial Black';-inkscape-font-specification:'Arial Black,  Bold';fill:#ffffff;fill-opacity:1"
                 id="path1272" />
            </g>
          </g>
        </g>
        <g
           id="g1098">
          <g
             transform="translate(0.03863491,0.12155605)"
             id="g1063">
            <path
               style="fill:#ff0000;fill-opacity:1;stroke:none;stroke-width:1.86622;stroke-linecap:round;stroke-linejoin:bevel;stroke-miterlimit:4;stroke-dasharray:none;stroke-opacity:1"
               d="m 132.12805,90.503426 h 16 v 16.000004 h -16 z"
               id="rect901" />
            <g
               aria-label="A"
               transform="matrix(0.26458333,0,0,0.26458333,130.41736,83.396171)"
               style="font-style:normal;font-weight:normal;font-size:40px;line-height:1.25;font-family:sans-serif;letter-spacing:0px;word-spacing:0px;fill:#000000;fill-opacity:1;stroke:none"
               id="flowRoot903">
              <path
                 d="m 39.983074,63.667318 h -6.718751 l -0.924479,3.151041 h -6.028646 l 7.174479,-19.088542 h 6.432292 l 7.17448,19.088542 h -6.171875 z m -1.23698,-4.127605 -2.109375,-6.861979 -2.096354,6.861979 z"
                 style="font-style:normal;font-variant:normal;font-weight:bold;font-stretch:normal;font-size:26.66666794px;font-family:'Arial Black';-inkscape-font-specification:'Arial Black,  Bold';fill:#ffffff;fill-opacity:1"
                 id="path1276" />
            </g>
          </g>
          <g
             transform="translate(0.03863491,0.0819366)"
             id="g1070">
            <path
               style="fill:#393939;fill-opacity:1;stroke:none;stroke-width:1.86622;stroke-linecap:round;stroke-linejoin:bevel;stroke-miterlimit:4;stroke-dasharray:none;stroke-opacity:1"
               d="m 132.12805,108.53472 h 16 v 16 h -16 z"
               id="rect942" />
            <g
               aria-label="32"
               transform="matrix(0.26458333,0,0,0.26458333,128.49844,101.38095)"
               style="font-style:normal;font-weight:normal;font-size:40px;line-height:1.25;font-family:sans-serif;letter-spacing:0px;word-spacing:0px;fill:#000000;fill-opacity:1;stroke:none"
               id="flowRoot950">
              <path
                 d="m 32.522136,53.25065 -5.013021,-0.898437 q 0.625,-2.395834 2.395833,-3.671875 1.783854,-1.276042 5.039063,-1.276042 3.736979,0 5.403646,1.393229 1.666667,1.393229 1.666667,3.502605 0,1.236979 -0.677084,2.239583 -0.677083,1.002604 -2.044271,1.757813 1.106771,0.273437 1.692709,0.63802 0.950521,0.585938 1.471354,1.54948 0.533854,0.950521 0.533854,2.278646 0,1.666666 -0.872396,3.203125 -0.872396,1.523437 -2.513021,2.356771 -1.640625,0.820312 -4.309896,0.820312 -2.604166,0 -4.114583,-0.611979 -1.497396,-0.611979 -2.473959,-1.783854 -0.963541,-1.184896 -1.484375,-2.96875 l 5.29948,-0.703125 q 0.3125,1.601562 0.963541,2.226562 0.664063,0.611979 1.679688,0.611979 1.067708,0 1.770833,-0.78125 0.716146,-0.78125 0.716146,-2.083333 0,-1.328125 -0.690104,-2.057292 -0.677083,-0.729167 -1.848958,-0.729167 -0.625,0 -1.71875,0.3125 l 0.273437,-3.789062 q 0.442708,0.0651 0.690104,0.0651 1.041667,0 1.731771,-0.664063 0.703125,-0.664062 0.703125,-1.57552 0,-0.872396 -0.520833,-1.39323 -0.520833,-0.520833 -1.432292,-0.520833 -0.9375,0 -1.523437,0.572917 -0.585938,0.559895 -0.794271,1.979166 z"
                 style="font-style:normal;font-variant:normal;font-weight:bold;font-stretch:normal;font-size:26.66666794px;font-family:'Arial Black';-inkscape-font-specification:'Arial Black,  Bold';fill:#ffffff;fill-opacity:1"
                 id="path1280" />
              <path
                 d="M 60.686199,66.818359 H 44.77474 q 0.273438,-2.356771 1.653646,-4.427083 1.393229,-2.083334 5.208334,-4.908855 2.330729,-1.73177 2.981771,-2.630208 0.651041,-0.898438 0.651041,-1.705729 0,-0.872396 -0.651041,-1.484375 -0.638021,-0.625 -1.614584,-0.625 -1.015625,0 -1.666666,0.63802 -0.638021,0.638021 -0.859375,2.252605 l -5.312501,-0.429688 q 0.3125,-2.239583 1.145834,-3.489583 0.833333,-1.263021 2.34375,-1.927084 1.523437,-0.677083 4.205729,-0.677083 2.799479,0 4.348959,0.638021 1.5625,0.638021 2.447916,1.966146 0.898438,1.315104 0.898438,2.955729 0,1.744792 -1.028646,3.333334 -1.015625,1.588541 -3.710938,3.489583 -1.601562,1.106771 -2.148437,1.549479 -0.533854,0.442709 -1.263021,1.158855 h 8.28125 z"
                 style="font-style:normal;font-variant:normal;font-weight:bold;font-stretch:normal;font-size:26.66666794px;font-family:'Arial Black';-inkscape-font-specification:'Arial Black,  Bold';fill:#ffffff;fill-opacity:1"
                 id="path1282" />
            </g>
          </g>
        </g>
      </g>
    </g>
  </g>
</svg>
